<svg xmlns="http://www.w3.org/2000/svg" width="24" height="24" fill="black" viewBox="0 0 25 25"><title></title><path d="M15.9409 2.96094H8.62842C5.26345 2.96094 2.53467 5.68972 2.53467 9.05469V16.3672C2.53467 19.7322 5.26345 22.4609 8.62842 22.4609H15.9409C19.3059 22.4609 22.0347 19.7322 22.0347 16.3672V9.05469C22.0347 5.68972 19.3059 2.96094 15.9409 2.96094ZM20.2065 16.3672C20.2065 18.7194 18.2931 20.6328 15.9409 20.6328H8.62842C6.27623 20.6328 4.36279 18.7194 4.36279 16.3672V9.05469C4.36279 6.7025 6.27623 4.78906 8.62842 4.78906H15.9409C18.2931 4.78906 20.2065 6.7025 20.2065 9.05469V16.3672Z" fill="black"></path><path d="M12.2847 7.83594C9.59245 7.83594 7.40967 10.0187 7.40967 12.7109C7.40967 15.4032 9.59245 17.5859 12.2847 17.5859C14.9769 17.5859 17.1597 15.4032 17.1597 12.7109C17.1597 10.0187 14.9769 7.83594 12.2847 7.83594ZM12.2847 15.7578C10.6052 15.7578 9.23779 14.3904 9.23779 12.7109C9.23779 11.0303 10.6052 9.66406 12.2847 9.66406C13.9641 9.66406 15.3315 11.0303 15.3315 12.7109C15.3315 14.3904 13.9641 15.7578 12.2847 15.7578Z" fill="black"></path><path d="M17.5253 8.11999C17.8841 8.11999 18.1749 7.82916 18.1749 7.47039C18.1749 7.11163 17.8841 6.8208 17.5253 6.8208C17.1666 6.8208 16.8757 7.11163 16.8757 7.47039C16.8757 7.82916 17.1666 8.11999 17.5253 8.11999Z" fill="black"></path></svg>