<svg xmlns="http://www.w3.org/2000/svg" width="19" height="19" data-testid="tooltip-icon" fill="currentColor" viewBox="0 0 25 25"><title></title><path d="M12.8119 22.6683C18.3113 22.6683 22.7694 18.2102 22.7694 12.7109C22.7694 7.21152 18.3113 2.75342 12.8119 2.75342C7.31259 2.75342 2.85449 7.21152 2.85449 12.7109C2.85449 18.2102 7.31259 22.6683 12.8119 22.6683Z" fill="currentColor"></path><path d="M11.8642 15.8012V14.7367C11.8642 13.5831 12.1114 13.2946 12.9011 12.4912L14.3776 10.9941C14.5377 10.8289 14.6628 10.633 14.7454 10.4182C14.8279 10.2035 14.8664 9.97424 14.8583 9.74429C14.866 9.51888 14.8272 9.29429 14.7442 9.08455C14.6613 8.87481 14.536 8.68442 14.3762 8.52526C14.2164 8.3661 14.0255 8.24158 13.8154 8.15948C13.6053 8.07738 13.3806 8.03946 13.1552 8.04809C12.6554 8.05814 12.1783 8.25837 11.821 8.60798C11.4638 8.95759 11.2533 9.43027 11.2324 9.9297L8.77393 9.73742C8.85841 8.63624 9.37227 7.61237 10.2047 6.88656C11.0371 6.16076 12.1215 5.79116 13.2239 5.85745C15.5175 5.85745 17.2755 7.18282 17.2755 9.62068C17.2755 11.2894 16.2935 12.0997 15.181 13.1573C14.4943 13.844 14.1647 14.0775 14.1647 15.0801V15.8012H11.8642ZM13.0179 16.9686C13.4104 16.9684 13.7875 17.1209 14.0695 17.394C14.3515 17.667 14.5162 18.039 14.5286 18.4313C14.5438 18.7395 14.4658 19.0451 14.305 19.3084C14.1442 19.5717 13.9079 19.7806 13.6269 19.9079C13.3458 20.0352 13.033 20.075 12.729 20.0222C12.425 19.9694 12.1439 19.8264 11.9222 19.6118C11.7006 19.3972 11.5486 19.1208 11.486 18.8187C11.4234 18.5166 11.4531 18.2026 11.5712 17.9176C11.6894 17.6326 11.8905 17.3897 12.1485 17.2204C12.4064 17.0512 12.7094 16.9634 13.0179 16.9686Z" fill="white"></path></svg>