<svg xmlns="http://www.w3.org/2000/svg" viewBox="0 0 20 20" fill="none"><path d="M19.5 10C19.5 15.2467 15.2467 19.5 10 19.5C4.75329 19.5 0.5 15.2467 0.5 10C0.5 4.75329 4.75329 0.5 10 0.5C15.2467 0.5 19.5 4.75329 19.5 10Z" stroke="white"></path><path d="M9.09024 12.9513V11.8869C9.09024 10.7332 9.33746 10.4448 10.1272 9.64132L11.6036 8.14427C11.7637 7.979 11.8888 7.78312 11.9714 7.56836C12.054 7.35361 12.0924 7.12439 12.0843 6.89444C12.0921 6.66902 12.0532 6.44444 11.9703 6.2347C11.8873 6.02496 11.762 5.83457 11.6022 5.67541C11.4424 5.51625 11.2515 5.39173 11.0415 5.30963C10.8314 5.22753 10.6067 5.18961 10.3813 5.19824C9.88151 5.20829 9.40438 5.40852 9.04712 5.75813C8.68985 6.10774 8.47933 6.58042 8.45846 7.07985L6 6.88757C6.08449 5.78639 6.59834 4.76252 7.43077 4.03671C8.2632 3.3109 9.34752 2.9413 10.4499 3.0076C12.7436 3.0076 14.5016 4.33297 14.5016 6.77083C14.5016 8.43956 13.5196 9.24989 12.4071 10.3074C11.7204 10.9942 11.3908 11.2276 11.3908 12.2303V12.9513H9.09024ZM10.2439 14.1187C10.6364 14.1185 11.0136 14.2711 11.2956 14.5441C11.5776 14.8171 11.7422 15.1892 11.7547 15.5814C11.7698 15.8896 11.6919 16.1952 11.5311 16.4585C11.3703 16.7218 11.134 16.9307 10.8529 17.058C10.5719 17.1853 10.2591 17.2251 9.95506 17.1723C9.65108 17.1195 9.36999 16.9765 9.14832 16.7619C8.92665 16.5473 8.77465 16.271 8.71205 15.9689C8.64945 15.6667 8.67915 15.3528 8.79729 15.0678C8.91544 14.7827 9.11656 14.5398 9.37454 14.3706C9.63252 14.2013 9.93544 14.1136 10.2439 14.1187Z" fill="white"></path></svg>