<svg xmlns="http://www.w3.org/2000/svg" width="24" height="24" fill="black" viewBox="0 0 25 25"><title></title><path d="M21.6271 7.04224C21.4029 6.20374 20.7418 5.54269 19.9033 5.31844C18.3823 4.91089 12.2847 4.91089 12.2847 4.91089C12.2847 4.91089 6.18702 4.91089 4.66602 5.31844C3.82752 5.54269 3.16647 6.20374 2.94222 7.04224C2.53467 8.56324 2.53467 12.7109 2.53467 12.7109C2.53467 12.7109 2.53467 16.8585 2.94222 18.3795C3.16647 19.218 3.82752 19.8791 4.66602 20.1033C6.18702 20.5109 12.2847 20.5109 12.2847 20.5109C12.2847 20.5109 18.3823 20.5109 19.9033 20.1033C20.7428 19.8791 21.4029 19.218 21.6271 18.3795C22.0347 16.8585 22.0347 12.7109 22.0347 12.7109C22.0347 12.7109 22.0347 8.56324 21.6271 7.04224ZM10.3347 16.0883V9.33349L16.1847 12.7109L10.3347 16.0883Z" fill="black"></path></svg>