<svg width="40" height="40" viewBox="0 0 25 25" fill="none" xmlns="http://www.w3.org/2000/svg">
  <g clipPath="url(#clip0_17006_5667)">
    <path d="M24.3359 7.53699C24.3226 7.51882 24.3075 7.50206 24.2908 7.48697C24.2715 7.45725 24.2484 7.43014 24.2222 7.4063C24.2064 7.39955 24.1902 7.39362 24.1738 7.38855C24.1625 7.38291 24.1576 7.37161 24.1455 7.36677L15.0699 3.74055C14.9741 3.70107 14.8665 3.70107 14.7706 3.74055L10.2247 5.55971L5.69499 7.37081C5.68369 7.37565 5.67804 7.38694 5.66756 7.39339C5.65114 7.39819 5.63498 7.40385 5.61915 7.41034C5.59293 7.43417 5.56988 7.46129 5.55058 7.49101C5.53385 7.50609 5.51871 7.52285 5.50541 7.54102C5.46592 7.60166 5.44387 7.67199 5.44168 7.74432V10.9712H1.96309L2.93115 10.0031H1.77109L0.399658 11.3746L1.77109 12.746H2.93277L1.96309 11.7779H5.44168V14.6015H1.96309L2.93115 13.6334H1.77109L0.399658 15.0048L1.77109 16.3763H2.93277L1.96309 15.4082H5.44168V18.2317H1.96309L2.93115 17.2636H1.77109L0.399658 18.6351L1.77109 20.0065H2.93277L1.96309 19.0384H5.76759L14.7706 22.6388C14.8182 22.6586 14.8692 22.6688 14.9207 22.6687C14.9719 22.6688 15.0226 22.6586 15.0699 22.6388L24.1455 19.0086C24.2203 18.9788 24.2845 18.9273 24.3298 18.8607C24.3751 18.7942 24.3994 18.7156 24.3997 18.6351V7.74432C24.3982 7.67061 24.3761 7.59879 24.3359 7.53699ZM14.9207 4.54889L22.9072 7.74432L19.4585 9.12543L11.4719 5.93L14.9207 4.54889ZM14.5173 21.67L7.9401 19.0384H13.5065V18.2317H6.24598V15.4082H11.6938V14.6015H6.2484V11.7779H9.87865V10.9712H6.2484V8.34049L14.5173 11.6481V21.67ZM14.9207 10.9406L6.93411 7.74432L10.3853 6.36321L18.3718 9.55944L14.9207 10.9406ZM23.5929 18.3624L15.324 21.67V11.6481L23.5929 8.34049V18.3624Z" fill="currentColor"/>
  </g>
  <defs>
    <clipPath id="clip0_17006_5667">
      <rect width="24" height="24" fill="white" transform="translate(0.399658 0.710938)"/>
    </clipPath>
  </defs>
</svg>
