<svg width="46" height="46" viewBox="0 0 25 25" fill="none" xmlns="http://www.w3.org/2000/svg">
  <path d="M21.4979 14.1265L19.1966 10.4518H14.8538V8.74441H11.9957L11.2534 9.48676H14.1114V17.7269H8.54377C8.45376 17.2799 8.21289 16.8775 7.86151 16.5869C7.51013 16.2963 7.06958 16.1353 6.61365 16.1309C6.15587 16.1285 5.7118 16.287 5.35901 16.5787C5.00622 16.8704 4.76714 17.2768 4.68352 17.7269H3.6071V9.44965H5.6857L4.90623 8.70729H2.86475V18.4322H4.68352C4.77353 18.8791 5.0144 19.2816 5.36578 19.5722C5.71716 19.8628 6.15771 20.0238 6.61365 20.0282C7.07143 20.0306 7.5155 19.8721 7.86829 19.5804C8.22108 19.2886 8.46016 18.8822 8.54377 18.4322H15.8931C15.9831 18.8791 16.224 19.2816 16.5754 19.5722C16.9267 19.8628 17.3673 20.0238 17.8232 20.0282C18.281 20.0306 18.7251 19.8721 19.0779 19.5804C19.4307 19.2886 19.6697 18.8822 19.7534 18.4322H21.535V14.1265H21.4979ZM6.61365 19.2488C6.37139 19.2488 6.13457 19.1769 5.93314 19.0423C5.7317 18.9077 5.57471 18.7164 5.482 18.4926C5.38929 18.2688 5.36503 18.0225 5.41229 17.7849C5.45956 17.5473 5.57622 17.329 5.74752 17.1577C5.91882 16.9864 6.13708 16.8698 6.37468 16.8225C6.61229 16.7752 6.85857 16.7995 7.08239 16.8922C7.30621 16.9849 7.49751 17.1419 7.6321 17.3434C7.7667 17.5448 7.83853 17.7816 7.83853 18.0239C7.84027 18.1852 7.80978 18.3453 7.74884 18.4947C7.6879 18.6441 7.59774 18.7798 7.48365 18.8939C7.36956 19.008 7.23384 19.0981 7.08444 19.1591C6.93505 19.22 6.77498 19.2505 6.61365 19.2488ZM17.7861 19.2488C17.5439 19.2488 17.307 19.1769 17.1056 19.0423C16.9042 18.9077 16.7472 18.7164 16.6545 18.4926C16.5618 18.2688 16.5375 18.0225 16.5848 17.7849C16.632 17.5473 16.7487 17.329 16.92 17.1577C17.0913 16.9864 17.3095 16.8698 17.5472 16.8225C17.7848 16.7752 18.031 16.7995 18.2549 16.8922C18.4787 16.9849 18.67 17.1419 18.8046 17.3434C18.9392 17.5448 19.011 17.7816 19.011 18.0239C19.0127 18.1852 18.9822 18.3453 18.9213 18.4947C18.8604 18.6441 18.7702 18.7798 18.6561 18.8939C18.542 19.008 18.4063 19.0981 18.2569 19.1591C18.1075 19.22 17.9475 19.2505 17.7861 19.2488ZM20.7555 17.6898H19.7162C19.6262 17.2428 19.3854 16.8403 19.034 16.5498C18.6826 16.2592 18.242 16.0982 17.7861 16.0937C17.3283 16.0913 16.8843 16.2499 16.5315 16.5416C16.1787 16.8333 15.9396 17.2397 15.856 17.6898H14.8167V11.1571H18.7512L20.7184 14.3121V17.6898H20.7555ZM8.54377 11.1571L5.57435 8.29899L6.79924 7.07411L8.54377 8.70729L12.2556 4.88416L13.4804 6.10904L8.54377 11.1571Z" fill="currentColor"/>
</svg>