<?xml version="1.0" encoding="UTF-8"?>
<svg id="Layer_1" data-name="Layer 1" xmlns="http://www.w3.org/2000/svg" viewBox="0 0 56.02 40.28">
  <defs>
    <style>
      .cls-1 {
        fill: #231f20;
        stroke-width: 0px;
      }
    </style>
  </defs>
  <path class="cls-1" d="m17.84,1.1H0v5.83c0,2.2,1.78,3.93,3.93,3.93h15.55l-13.65,12h8.54c3.42,0,6.21,2.79,6.21,6.21v3.47c0,3.42-2.79,6.21-6.21,6.21H1.27v-4.23c0-1.56,1.27-2.83,2.83-2.83h12.26c.34,0,.63-.3.63-.63s-.3-.63-.63-.63H4.1C1.86,30.43.04,32.25.04,34.49v5.45h14.33c4.1,0,7.44-3.34,7.44-7.44v-3.47c0-4.1-3.34-7.44-7.44-7.44h-5.24l12.68-11.12v-5.45c0-2.16-1.78-3.93-3.97-3.93Z"/>
  <path class="cls-1" d="m49.03,15.68l5.66-6.17c.72-.76,1.1-1.78,1.06-2.83-.04-1.06-.51-2.03-1.27-2.75l-4.27-3.93-14.37,15.55c-1.44,1.56-2.16,3.55-2.07,5.66.08,2.11.97,4.06,2.54,5.49l7.95,7.35-.08-5.66c-.08-4.73,1.65-9.26,4.86-12.72Z"/>
  <path class="cls-1" d="m54.77,30.43l-7.99-7.35-.25,1.01c-.34,1.39-.51,2.83-.46,4.27l.13,7.44,4.86,4.48,3.93-4.27c1.48-1.61,1.35-4.1-.21-5.58Z"/>
  <path class="cls-1" d="m34.87,28.49c-.34,0-.63.3-.63.63v9.64h-4.48c-1.56,0-2.87-1.27-2.87-2.87V2.32h4.52c1.56,0,2.87,1.27,2.87,2.87v6.8c0,.34.3.63.63.63s.63-.3.63-.63v-6.8c0-2.24-1.86-4.1-4.1-4.1h-5.79v34.83c0,2.24,1.86,4.1,4.1,4.1h5.75v-10.9c0-.34-.3-.63-.63-.63Z"/>
</svg>