<svg xmlns="http://www.w3.org/2000/svg" viewBox="0 0 50 30" x="0" y="0" xml:space="preserve" fill="var(--colour-black)" width="50" height="30"><title>apple-pay-logo</title><g id="Apple_Pay_Mark_RGB_041619" transform="translate(0 -0.5)"><g id="Group_1739" data-name="Group 1739" transform="translate(0 0.5)"><path id="XMLID_4_" d="M45.522,0H3.965c-.144,0-.288,0-.432.006a6.688,6.688,0,0,0-.94.078A3.325,3.325,0,0,0,1.7.361,3,3,0,0,0,.937.879,2.8,2.8,0,0,0,.09,2.43a5.488,5.488,0,0,0-.083.881c0,.135-.006.27-.006.4,0,.16,0,.32,0,.481V25.8c0,.161,0,.32,0,.481,0,.135,0,.27.006.4a5.486,5.486,0,0,0,.083.881,2.8,2.8,0,0,0,.847,1.551,2.983,2.983,0,0,0,.761.518,3.312,3.312,0,0,0,.894.277,6.739,6.739,0,0,0,.94.077q.216,0,.432.005h42.07q.216,0,.432-.005a6.758,6.758,0,0,0,.94-.077,3.315,3.315,0,0,0,.893-.277,2.986,2.986,0,0,0,.761-.518,2.8,2.8,0,0,0,.847-1.551,5.485,5.485,0,0,0,.083-.881c0-.135.006-.27.007-.4,0-.161,0-.32,0-.481V4.2c0-.161,0-.321,0-.481,0-.135,0-.27-.007-.4a5.487,5.487,0,0,0-.083-.881A2.8,2.8,0,0,0,49.062.879,3,3,0,0,0,48.3.361a3.328,3.328,0,0,0-.893-.276,6.706,6.706,0,0,0-.94-.078C46.323,0,46.179,0,46.035,0Z" transform="translate(0)"></path><path id="XMLID_3_" fill="#fff" d="M47.987,3.532h.5c.137,0,.274,0,.411.006a5.683,5.683,0,0,1,.78.062,2.206,2.206,0,0,1,.6.184,1.931,1.931,0,0,1,.489.333,1.831,1.831,0,0,1,.358.462,1.863,1.863,0,0,1,.195.561,4.668,4.668,0,0,1,.066.73c0,.127.005.255.006.385,0,.158,0,.315,0,.473V28.335c0,.158,0,.315,0,.476,0,.127,0,.255-.006.382a4.661,4.661,0,0,1-.067.733,1.857,1.857,0,0,1-.195.559,1.821,1.821,0,0,1-.357.46,1.921,1.921,0,0,1-.492.335,2.188,2.188,0,0,1-.6.183,5.78,5.78,0,0,1-.777.062c-.138,0-.276,0-.417.005H6.435c-.138,0-.275,0-.408-.005a5.791,5.791,0,0,1-.78-.062,2.2,2.2,0,0,1-.6-.184,1.914,1.914,0,0,1-.49-.334,1.809,1.809,0,0,1-.356-.46,1.878,1.878,0,0,1-.2-.562,4.644,4.644,0,0,1-.066-.73c0-.128-.005-.256-.006-.384V6.255c0-.128,0-.256.006-.384a4.648,4.648,0,0,1,.067-.732,1.875,1.875,0,0,1,.2-.561,1.814,1.814,0,0,1,.356-.459,1.929,1.929,0,0,1,.491-.334,2.2,2.2,0,0,1,.6-.183,5.676,5.676,0,0,1,.781-.062c.137,0,.273,0,.409-.006H47.987" transform="translate(-2.465 -2.532)"></path></g><g id="Group_1738" data-name="Group 1738" transform="translate(8 8.5)"><g id="Group_1736" data-name="Group 1736"><path id="Path_14835" data-name="Path 14835" d="M40.761,30.92a2.615,2.615,0,0,0,.6-1.864,2.593,2.593,0,0,0-1.719.89,2.448,2.448,0,0,0-.616,1.792,2.164,2.164,0,0,0,1.734-.817" transform="translate(-34.32 -29.055)"></path><path id="Path_14836" data-name="Path 14836" d="M29.471,38.973c-.958-.057-1.772.543-2.229.543s-1.158-.515-1.915-.5a2.824,2.824,0,0,0-2.4,1.458c-1.029,1.773-.272,4.4.729,5.848.486.715,1.071,1.5,1.843,1.473.729-.029,1.015-.472,1.9-.472s1.143.472,1.915.458c.8-.014,1.3-.715,1.786-1.43a6.347,6.347,0,0,0,.8-1.644,2.6,2.6,0,0,1-1.557-2.359A2.647,2.647,0,0,1,31.6,40.131a2.738,2.738,0,0,0-2.129-1.158" transform="translate(-22.435 -36.162)"></path></g><g id="Group_1737" data-name="Group 1737" transform="translate(11.351 0.818)"><path id="Path_14837" data-name="Path 14837" d="M66.551,31.944a3.365,3.365,0,0,1,3.53,3.523A3.4,3.4,0,0,1,66.5,39.005H64.2v3.664H62.53V31.944h4.021ZM64.2,37.608h1.91a2.134,2.134,0,1,0,.007-4.259H64.2Z" transform="translate(-62.53 -31.944)"></path><path id="Path_14838" data-name="Path 14838" d="M90.74,47.449c0-1.368,1.048-2.208,2.906-2.312l2.141-.126v-.6c0-.87-.587-1.39-1.568-1.39a1.5,1.5,0,0,0-1.65,1.145H91.052c.089-1.412,1.293-2.453,3.226-2.453,1.9,0,3.107,1,3.107,2.572v5.389H95.846V48.385h-.037a2.794,2.794,0,0,1-2.468,1.42A2.37,2.37,0,0,1,90.74,47.449Zm5.047-.706v-.617l-1.925.119c-.959.067-1.5.491-1.5,1.16s.565,1.13,1.427,1.13A1.874,1.874,0,0,0,95.787,46.742Z" transform="translate(-82.753 -38.945)"></path><path id="Path_14839" data-name="Path 14839" d="M117.384,52.905V51.6a2.971,2.971,0,0,0,.52.03,1.3,1.3,0,0,0,1.39-1.115c0-.015.141-.476.141-.483l-2.824-7.827h1.739l1.977,6.363h.03l1.977-6.363h1.695L121.1,50.437c-.669,1.9-1.442,2.5-3.062,2.5A6.209,6.209,0,0,1,117.384,52.905Z" transform="translate(-101.3 -39.303)"></path></g></g></g></svg>